<svg width="1280" height="720" viewBox="0 0 1280 720" xmlns="http://www.w3.org/2000/svg" role="img" aria-label="FIDE World Cup 2025 banner">
  <defs>
    <linearGradient id="bg" x1="0" y1="0" x2="1" y2="1">
      <stop offset="0" stop-color="#240a12" />
      <stop offset="0.5" stop-color="#3b0f1c" />
      <stop offset="1" stop-color="#14080d" />
    </linearGradient>
    <radialGradient id="glow" cx="0.2" cy="0.2" r="0.7">
      <stop offset="0" stop-color="#ff7b7b" stop-opacity="0.35" />
      <stop offset="1" stop-color="#000000" stop-opacity="0" />
    </radialGradient>
  </defs>
  <rect width="1280" height="720" fill="url(#bg)" />
  <rect width="1280" height="720" fill="url(#glow)" />
  <g fill="none" stroke="#5a1a26" stroke-width="2" opacity="0.4">
    <path d="M0 560 C320 520, 520 640, 840 600 C1040 580, 1160 520, 1280 480" />
    <path d="M0 620 C360 580, 560 700, 920 660 C1100 640, 1200 590, 1280 560" />
  </g>
  <g transform="translate(96 140)">
    <rect x="0" y="0" width="180" height="180" rx="36" fill="#7a1c2c" opacity="0.9" />
    <path d="M54 44 h64 a34 34 0 0 1 0 68 h-22 v24 h-42 z" fill="#f2d6d9" opacity="0.9" />
    <path d="M78 84 h40 a10 10 0 0 1 0 20 h-12 v18 h-28 z" fill="#b34c5e" />
  </g>
  <g transform="translate(320 200)" fill="#f3e9eb">
    <text x="0" y="0" font-family="system-ui, -apple-system, Segoe UI, sans-serif" font-size="40" font-weight="600" letter-spacing="0.5">
      FIDE World Cup 2025
    </text>
    <text x="0" y="52" font-family="system-ui, -apple-system, Segoe UI, sans-serif" font-size="22" fill="#e1b9c1" letter-spacing="1.2">
      Official Broadcast Banner
    </text>
  </g>
</svg>
