<svg xmlns="http://www.w3.org/2000/svg" width="900" height="600" viewBox="0 0 30 20">
  <rect width="30" height="20" fill="#de2910"/>
  <polygon fill="#ffde00" points="5.00,2.00 5.71,4.03 7.85,4.07 6.14,5.37 6.76,7.43 5.00,6.20 3.24,7.43 3.86,5.37 2.15,4.07 4.29,4.03"/>
  <polygon fill="#ffde00" points="10.00,1.00 10.24,1.68 10.95,1.69 10.38,2.12 10.59,2.81 10.00,2.40 9.41,2.81 9.62,2.12 9.05,1.69 9.76,1.68"/>
  <polygon fill="#ffde00" points="12.00,3.00 12.24,3.68 12.95,3.69 12.38,4.12 12.59,4.81 12.00,4.40 11.41,4.81 11.62,4.12 11.05,3.69 11.76,3.68"/>
  <polygon fill="#ffde00" points="12.00,6.00 12.24,6.68 12.95,6.69 12.38,7.12 12.59,7.81 12.00,7.40 11.41,7.81 11.62,7.12 11.05,6.69 11.76,6.68"/>
  <polygon fill="#ffde00" points="10.00,8.00 10.24,8.68 10.95,8.69 10.38,9.12 10.59,9.81 10.00,9.40 9.41,9.81 9.62,9.12 9.05,8.69 9.76,8.68"/>
</svg>
