<svg xmlns="http://www.w3.org/2000/svg" width="45" height="45" viewBox="0 0 45 45"><g fill="#444" fill-rule="evenodd" stroke="#000" stroke-width="2.5" stroke-linecap="round" stroke-linejoin="round"><path d="M22.5 11.63V6M20 8h5" stroke-linejoin="miter"/><path d="M22.5 25s4.5-7.5 3-10.5c0 0-1-2.5-3-2.5s-3 2.5-3 2.5c-1.5 3 3 10.5 3 10.5" fill="#444" stroke-linecap="butt" stroke-linejoin="miter"/><path d="M11.5 37c5.5 3.5 15.5 3.5 21 0v-7s9-4.5 6-10.5c-4-6.5-16.5-11.5-16.5-11.5s-12.5 5-16.5 11.5c-3 6.5 6 10.5 6 10.5v7" stroke-linecap="butt"/><path d="M18 34.5a23.01 23.01 0 0 10 0M11.5 37h21" fill="none"/></g></svg>